<svg width="40" height="40" viewBox="0 0 40 40" fill="none" xmlns="http://www.w3.org/2000/svg">
<path d="M20 34.5833C19.6698 34.579 19.3544 34.4459 19.1209 34.2124C18.8874 33.9789 18.7543 33.6635 18.75 33.3333V6.66666C18.75 6.33514 18.8817 6.01719 19.1161 5.78277C19.3505 5.54835 19.6685 5.41666 20 5.41666C20.3315 5.41666 20.6495 5.54835 20.8839 5.78277C21.1183 6.01719 21.25 6.33514 21.25 6.66666V33.3333C21.2457 33.6635 21.1126 33.9789 20.8791 34.2124C20.6456 34.4459 20.3302 34.579 20 34.5833Z" fill="white"/>
<path d="M22.5 31.25H11.6667C11.3351 31.25 11.0172 31.1183 10.7828 30.8839C10.5484 30.6495 10.4167 30.3315 10.4167 30C10.4167 29.6685 10.5484 29.3505 10.7828 29.1161C11.0172 28.8817 11.3351 28.75 11.6667 28.75H22.5C23.6026 28.8483 24.6998 28.5108 25.5565 27.8098C26.4132 27.1089 26.9613 26.1002 27.0833 25C26.9613 23.8998 26.4132 22.8912 25.5565 22.1902C24.6998 21.4893 23.6026 21.1518 22.5 21.25H17.5C16.6241 21.3065 15.7458 21.1894 14.9153 20.9056C14.0847 20.6218 13.3184 20.1768 12.6603 19.5961C12.0022 19.0154 11.4653 18.3105 11.0802 17.5218C10.6952 16.7331 10.4697 15.8761 10.4167 15C10.4697 14.1239 10.6952 13.267 11.0802 12.4783C11.4653 11.6896 12.0022 10.9846 12.6603 10.404C13.3184 9.82327 14.0847 9.37825 14.9153 9.09442C15.7458 8.8106 16.6241 8.69356 17.5 8.75001H26.6667C26.9982 8.75001 27.3161 8.88171 27.5505 9.11613C27.785 9.35055 27.9167 9.66849 27.9167 10C27.9167 10.3315 27.785 10.6495 27.5505 10.8839C27.3161 11.1183 26.9982 11.25 26.6667 11.25H17.5C16.3974 11.1518 15.3002 11.4893 14.4435 12.1902C13.5868 12.8912 13.0387 13.8998 12.9167 15C13.0387 16.1002 13.5868 17.1089 14.4435 17.8098C15.3002 18.5108 16.3974 18.8483 17.5 18.75H22.5C23.3758 18.6936 24.2542 18.8106 25.0847 19.0944C25.9153 19.3782 26.6815 19.8233 27.3397 20.404C27.9978 20.9846 28.5347 21.6896 28.9198 22.4783C29.3048 23.267 29.5303 24.1239 29.5833 25C29.5303 25.8761 29.3048 26.7331 28.9198 27.5218C28.5347 28.3105 27.9978 29.0154 27.3397 29.5961C26.6815 30.1768 25.9153 30.6218 25.0847 30.9056C24.2542 31.1894 23.3758 31.3065 22.5 31.25Z" fill="white"/>
</svg>
