<svg width="40" height="40" viewBox="0 0 40 40" fill="none" xmlns="http://www.w3.org/2000/svg">
<path d="M23.6667 31.2216V21.4438C23.6667 21.1196 23.538 20.8087 23.3088 20.5795C23.0795 20.3503 22.7687 20.2216 22.4445 20.2216H17.5556C17.2315 20.2216 16.9206 20.3503 16.6914 20.5795C16.4622 20.8087 16.3334 21.1196 16.3334 21.4438V31.2216" stroke="white" stroke-width="2.5" stroke-linecap="round" stroke-linejoin="round"/>
<path d="M9 17.7771C8.99991 17.4216 9.07741 17.0702 9.22707 16.7477C9.37674 16.4251 9.59497 16.1391 9.86656 15.9096L18.4221 8.57748C18.8633 8.20459 19.4223 8 20 8C20.5777 8 21.1367 8.20459 21.5779 8.57748L30.1334 15.9096C30.405 16.1391 30.6233 16.4251 30.7729 16.7477C30.9226 17.0702 31.0001 17.4216 31 17.7771V28.7771C31 29.4254 30.7425 30.0472 30.284 30.5056C29.8256 30.964 29.2039 31.2216 28.5556 31.2216H11.4444C10.7961 31.2216 10.1744 30.964 9.71596 30.5056C9.25754 30.0472 9 29.4254 9 28.7771V17.7771Z" stroke="white" stroke-width="2.5" stroke-linecap="round" stroke-linejoin="round"/>
</svg>
