<svg width="140" height="32" viewBox="0 0 140 32" fill="none" xmlns="http://www.w3.org/2000/svg">
<g clip-path="url(#clip0_5_2016)">
<path d="M63.5091 21.967C62.3599 21.967 61.3181 21.7209 60.3836 21.2289C59.4599 20.7261 58.7296 20.0361 58.1926 19.159C57.6663 18.2712 57.4032 17.2709 57.4032 16.1584C57.4032 15.0459 57.6663 14.0511 58.1926 13.1739C58.7296 12.286 59.4599 11.596 60.3836 11.104C61.3181 10.6012 62.3653 10.3498 63.5251 10.3498C64.5026 10.3498 65.3833 10.521 66.1673 10.8633C66.9621 11.2056 67.628 11.6976 68.165 12.3395L66.4895 13.8799C65.727 13.0028 64.7818 12.5642 63.6541 12.5642C62.956 12.5642 62.333 12.7193 61.7853 13.0295C61.2375 13.329 60.8078 13.7516 60.4964 14.2971C60.1957 14.8426 60.0453 15.4631 60.0453 16.1584C60.0453 16.8538 60.1957 17.4742 60.4964 18.0197C60.8078 18.5653 61.2375 18.9932 61.7853 19.3034C62.333 19.6029 62.956 19.7527 63.6541 19.7527C64.7818 19.7527 65.727 19.3088 66.4895 18.4209L68.165 19.9612C67.628 20.6138 66.9621 21.1112 66.1673 21.4535C65.3726 21.7958 64.4864 21.967 63.5091 21.967Z" fill="white"/>
<path d="M74.8435 21.967C73.2325 21.967 71.9757 21.5231 71.0736 20.6352C70.1821 19.7474 69.7364 18.4797 69.7364 16.8323V10.5424H72.3463V16.7361C72.3463 18.7471 73.1841 19.7527 74.8596 19.7527C75.6758 19.7527 76.2987 19.512 76.7284 19.0306C77.158 18.5386 77.3728 17.7737 77.3728 16.7361V10.5424H79.9505V16.8323C79.9505 18.4797 79.4994 19.7474 78.5972 20.6352C77.7058 21.5231 76.4545 21.967 74.8435 21.967Z" fill="white"/>
<path d="M90.8104 15.9338C91.4548 16.137 91.9596 16.4794 92.3248 16.9607C92.6899 17.4313 92.8725 18.0144 92.8725 18.7097C92.8725 19.6938 92.4858 20.4534 91.7126 20.9882C90.9499 21.5123 89.833 21.7745 88.3616 21.7745H82.5295V10.5424H88.0394C89.4141 10.5424 90.4667 10.8045 91.197 11.3286C91.9381 11.8528 92.3086 12.5642 92.3086 13.4627C92.3086 14.0083 92.1743 14.4951 91.9059 14.9229C91.6481 15.3508 91.2829 15.6877 90.8104 15.9338ZM85.1233 12.5V15.1475H87.7172C88.3616 15.1475 88.8503 15.0352 89.1832 14.8106C89.5161 14.5859 89.6826 14.2544 89.6826 13.8158C89.6826 13.3772 89.5161 13.0509 89.1832 12.837C88.8503 12.6123 88.3616 12.5 87.7172 12.5H85.1233ZM88.1682 19.8169C88.8556 19.8169 89.3712 19.7045 89.7148 19.4799C90.0692 19.2552 90.2464 18.9076 90.2464 18.437C90.2464 17.5062 89.5538 17.0409 88.1682 17.0409H85.1233V19.8169H88.1682Z" fill="white"/>
<path d="M102.275 19.3676H97.0394L96.0406 21.7745H93.3663L98.3927 10.5424H100.97L106.013 21.7745H103.274L102.275 19.3676ZM101.454 17.394L99.6654 13.0937L97.8772 17.394H101.454Z" fill="white"/>
<path d="M108.952 12.6604H105.344V10.5424H115.171V12.6604H111.562V21.7745H108.952V12.6604Z" fill="white"/>
<path d="M121.88 21.967C120.709 21.967 119.651 21.7156 118.706 21.2128C117.771 20.7101 117.036 20.0201 116.499 19.143C115.973 18.2551 115.709 17.2603 115.709 16.1584C115.709 15.0566 115.973 14.0671 116.499 13.1899C117.036 12.302 117.771 11.6067 118.706 11.104C119.651 10.6012 120.709 10.3498 121.88 10.3498C123.05 10.3498 124.103 10.6012 125.037 11.104C125.971 11.6067 126.708 12.302 127.245 13.1899C127.782 14.0671 128.05 15.0566 128.05 16.1584C128.05 17.2603 127.782 18.2551 127.245 19.143C126.708 20.0201 125.971 20.7101 125.037 21.2128C124.103 21.7156 123.05 21.967 121.88 21.967ZM121.88 19.7527C122.545 19.7527 123.147 19.6029 123.684 19.3034C124.222 18.9932 124.64 18.5653 124.941 18.0197C125.253 17.4742 125.408 16.8538 125.408 16.1584C125.408 15.4631 125.253 14.8426 124.941 14.2971C124.64 13.7516 124.222 13.329 123.684 13.0295C123.147 12.7193 122.545 12.5642 121.88 12.5642C121.214 12.5642 120.613 12.7193 120.076 13.0295C119.538 13.329 119.114 13.7516 118.802 14.2971C118.501 14.8426 118.352 15.4631 118.352 16.1584C118.352 16.8538 118.501 17.4742 118.802 18.0197C119.114 18.5653 119.538 18.9932 120.076 19.3034C120.613 19.6029 121.214 19.7527 121.88 19.7527Z" fill="white"/>
<path d="M137.197 21.7745L135.022 18.6455H134.893H132.622V21.7745H130.012V10.5424H134.893C135.891 10.5424 136.757 10.7082 137.487 11.0398C138.228 11.3714 138.797 11.8421 139.194 12.4518C139.592 13.0616 139.791 13.7837 139.791 14.618C139.791 15.4524 139.586 16.1745 139.178 16.7842C138.781 17.3833 138.212 17.8432 137.471 18.1642L140 21.7745H137.197ZM137.149 14.618C137.149 13.9869 136.945 13.5055 136.537 13.1739C136.128 12.8316 135.532 12.6604 134.748 12.6604H132.622V16.5756H134.748C135.532 16.5756 136.128 16.4045 136.537 16.0621C136.945 15.7198 137.149 15.2384 137.149 14.618Z" fill="white"/>
<path d="M0 10.5611H2.60582V21.7558H0V10.5611Z" fill="white"/>
<path d="M7.61037 12.6721H4.00726V10.5611H13.8193V12.6721H10.2162V21.7558H7.61037V12.6721Z" fill="white"/>
<path d="M30.1898 10.5611H32.7992V21.7558H30.1898V10.5611Z" fill="white"/>
<path d="M45.8162 10.5611V21.7558H43.6739L38.0523 14.959V21.7558H35.4752V10.5611H37.6335L43.239 17.3578V10.5611H45.8162Z" fill="white"/>
<path fill-rule="evenodd" clip-rule="evenodd" d="M31.306 5.80858C32.2746 5.80858 33.06 6.58884 33.06 7.55115C33.06 8.51347 32.2746 9.29373 31.306 9.29373C30.3374 9.29373 29.552 8.51347 29.552 7.55115C29.552 6.58884 30.3374 5.80858 31.306 5.80858Z" fill="#FF0808"/>
<path fill-rule="evenodd" clip-rule="evenodd" d="M17.4336 14.2574C18.4317 14.2574 19.2407 15.0375 19.2407 16C19.2407 16.9625 18.4317 17.7426 17.4336 17.7426C16.4354 17.7426 15.6264 16.9625 15.6264 16C15.6264 15.0375 16.4354 14.2574 17.4336 14.2574Z" fill="white"/>
<path fill-rule="evenodd" clip-rule="evenodd" d="M38.003 30.6667C46.1563 30.6667 52.7658 24.1002 52.7658 16C52.7658 7.89983 46.1563 1.33333 38.003 1.33333C29.8498 1.33333 23.2403 7.89983 23.2403 16C23.2403 24.1002 29.8498 30.6667 38.003 30.6667ZM38.003 32C46.8974 32 54.1078 24.8365 54.1078 16C54.1078 7.16345 46.8974 0 38.003 0C29.1086 0 21.8983 7.16345 21.8983 16C21.8983 24.8365 29.1086 32 38.003 32Z" fill="white"/>
</g>
<defs>
<clipPath id="clip0_5_2016">
<rect width="140" height="32" fill="white"/>
</clipPath>
</defs>
</svg>
