<svg width="30" height="30" viewBox="0 0 30 30" fill="none" xmlns="http://www.w3.org/2000/svg">
<path d="M9.375 5C6.9625 5 5 6.9625 5 9.375C5 11.7875 6.9625 13.75 9.375 13.75C11.7875 13.75 13.75 11.7875 13.75 9.375C13.75 6.9625 11.7875 5 9.375 5ZM9.375 11.25C8.3375 11.25 7.5 10.4125 7.5 9.375C7.5 8.3375 8.3375 7.5 9.375 7.5C10.4125 7.5 11.25 8.3375 11.25 9.375C11.25 10.4125 10.4125 11.25 9.375 11.25ZM20.625 16.25C18.2125 16.25 16.25 18.2125 16.25 20.625C16.25 23.0375 18.2125 25 20.625 25C23.0375 25 25 23.0375 25 20.625C25 18.2125 23.0375 16.25 20.625 16.25ZM20.625 22.5C19.5875 22.5 18.75 21.6625 18.75 20.625C18.75 19.5875 19.5875 18.75 20.625 18.75C21.6625 18.75 22.5 19.5875 22.5 20.625C22.5 21.6625 21.6625 22.5 20.625 22.5ZM6.7625 25L5 23.2375L23.2375 5L25 6.7625L6.7625 25Z" fill="white"/>
</svg>
