<svg width="40" height="40" viewBox="0 0 40 40" fill="none" xmlns="http://www.w3.org/2000/svg">
<path d="M14.4 6.25C14.6694 6.25548 14.9299 6.34788 15.1426 6.51345C15.3552 6.67902 15.5086 6.90887 15.58 7.16875L21.3025 27.9763L25.6775 13.3913C25.7514 13.1443 25.9 12.9262 26.1027 12.7669C26.3054 12.6076 26.5525 12.5148 26.81 12.5014C27.0674 12.488 27.3228 12.5546 27.541 12.6919C27.7592 12.8293 27.9295 13.0308 28.0288 13.2688L30.8337 20H35C35.3315 20 35.6495 20.1317 35.8839 20.3661C36.1183 20.6005 36.25 20.9185 36.25 21.25C36.25 21.5815 36.1183 21.8995 35.8839 22.1339C35.6495 22.3683 35.3315 22.5 35 22.5H30C29.7533 22.5 29.5121 22.427 29.3068 22.2902C29.1015 22.1534 28.9412 21.9589 28.8462 21.7313L27.0662 17.46L22.4475 32.86C22.3694 33.1198 22.209 33.3472 21.9903 33.5077C21.7716 33.6683 21.5067 33.7534 21.2354 33.7502C20.9642 33.7469 20.7013 33.6555 20.4866 33.4898C20.2718 33.324 20.1168 33.0929 20.045 32.8313L14.2875 11.8975L11.1912 21.6288C11.1109 21.8816 10.9521 22.1023 10.7379 22.259C10.5238 22.4156 10.2653 22.5 10 22.5H5C4.66848 22.5 4.35054 22.3683 4.11612 22.1339C3.8817 21.8995 3.75 21.5815 3.75 21.25C3.75 20.9185 3.8817 20.6005 4.11612 20.3661C4.35054 20.1317 4.66848 20 5 20H9.08625L13.1838 7.12125C13.2654 6.86428 13.4279 6.6406 13.6471 6.48358C13.8663 6.32656 14.1304 6.24463 14.4 6.25Z" fill="white"/>
</svg>
