<svg width="40" height="40" viewBox="0 0 40 40" fill="none" xmlns="http://www.w3.org/2000/svg">
<path d="M23.2308 24.6154V8.46154C23.2308 7.54348 22.8661 6.66303 22.2169 6.01386C21.5677 5.3647 20.6873 5 19.7692 5C18.8512 5 17.9707 5.3647 17.3216 6.01386C16.6724 6.66303 16.3077 7.54348 16.3077 8.46154V24.6154C15.339 25.3419 14.6235 26.3548 14.2624 27.5106C13.9014 28.6664 13.9132 29.9064 14.2961 31.0552C14.679 32.2039 15.4136 33.203 16.3959 33.911C17.3782 34.619 18.5584 35 19.7692 35C20.9801 35 22.1603 34.619 23.1426 33.911C24.1249 33.203 24.8595 32.2039 25.2424 31.0552C25.6253 29.9064 25.6371 28.6664 25.276 27.5106C24.915 26.3548 24.1995 25.3419 23.2308 24.6154Z" stroke="white" stroke-width="2.14286" stroke-linecap="round" stroke-linejoin="round"/>
</svg>
