<svg width="40" height="40" viewBox="0 0 40 40" fill="none" xmlns="http://www.w3.org/2000/svg">
<path d="M26 26.708V32C26 32.7956 25.6839 33.5587 25.1213 34.1213C24.5587 34.6839 23.7957 35 23 35H17C16.2044 35 15.4413 34.6839 14.8787 34.1213C14.3161 33.5587 14 32.7956 14 32V26.708M14 13.292V8C14 7.20435 14.3161 6.44129 14.8787 5.87868C15.4413 5.31607 16.2044 5 17 5H23C23.7957 5 24.5587 5.31607 25.1213 5.87868C25.6839 6.44129 26 7.20435 26 8V13.292" stroke="white" stroke-width="1.875" stroke-linecap="round" stroke-linejoin="round"/>
<path d="M29 19.9999C29 17.613 28.0518 15.3238 26.364 13.636C24.6761 11.9482 22.3869 10.9999 20 10.9999C17.6131 10.9999 15.3239 11.9482 13.636 13.636C11.9482 15.3238 11 17.613 11 19.9999C11 22.3869 11.9482 24.6761 13.636 26.3639C15.3239 28.0517 17.6131 28.9999 20 28.9999C22.3869 28.9999 24.6761 28.0517 26.364 26.3639C28.0518 24.6761 29 22.3869 29 19.9999Z" stroke="white" stroke-width="1.875" stroke-linecap="round" stroke-linejoin="round"/>
<path d="M23 19.9999H20V16.9999" stroke="white" stroke-width="1.875" stroke-linecap="round" stroke-linejoin="round"/>
</svg>
